<?xml version="1.0" encoding="UTF-8"?>
<svg xmlns="http://www.w3.org/2000/svg" xmlns:xlink="http://www.w3.org/1999/xlink" width="288px" height="252px" viewBox="0 0 288 252" version="1.1" id="Fig:dens">
  <metadata xmlns:gridsvg="http://www.stat.auckland.ac.nz/~paul/R/gridSVG/">
    <gridsvg:generator name="gridSVG" version="1.7-1" time="2020-04-25 11:23:15"/>
    <gridsvg:argument name="name" value="arrayQualityMetrics report for eset_rma/dens.svg"/>
    <gridsvg:argument name="exportCoords" value="none"/>
    <gridsvg:argument name="exportMappings" value="none"/>
    <gridsvg:argument name="exportJS" value="none"/>
    <gridsvg:argument name="res" value="72"/>
    <gridsvg:argument name="prefix" value="Fig:dens"/>
    <gridsvg:argument name="addClasses" value="FALSE"/>
    <gridsvg:argument name="indent" value="TRUE"/>
    <gridsvg:argument name="htmlWrapper" value="FALSE"/>
    <gridsvg:argument name="usePaths" value="none"/>
    <gridsvg:argument name="uniqueNames" value="TRUE"/>
    <gridsvg:separator name="id.sep" value="."/>
    <gridsvg:separator name="gPath.sep" value="::"/>
    <gridsvg:separator name="vpPath.sep" value="::"/>
  </metadata>
  <g transform="translate(0, 252) scale(1, -1)">
    <g id="Fig:densgridSVG" fill="none" stroke="rgb(0,0,0)" stroke-dasharray="none" stroke-width="0.75" font-size="12" font-family="Helvetica, Arial, FreeSans, Liberation Sans, Nimbus Sans L, sans-serif" opacity="1" stroke-linecap="round" stroke-linejoin="round" stroke-miterlimit="10" stroke-opacity="1" fill-opacity="0" font-weight="normal" font-style="normal">
      <g id="Fig:densplot_01.background.1">
        <rect id="Fig:densplot_01.background.1.1" x="0" y="0" width="288" height="252" transform="" fill="none" stroke="none" stroke-opacity="0" fill-opacity="0"/>
      </g>
      <g id="Fig:densplot_01.toplevel.vp.1" font-size="12">
        <g id="Fig:densplot_01.ylab.vp.1">
          <g id="Fig:densplot_01.ylab.1">
            <g id="Fig:densplot_01.ylab.1.1" transform="translate(10.31, 138.09)" stroke-width="0.1">
              <g id="Fig:densplot_01.ylab.1.1.scale" transform="scale(1, -1)">
                <text x="0" y="0" id="Fig:densplot_01.ylab.1.1.text" transform="rotate(-90)" text-anchor="middle" opacity="1" stroke="rgb(0,0,0)" fill="rgb(0,0,0)" stroke-opacity="1" fill-opacity="1" font-size="12" font-weight="normal" font-style="normal">
                  <tspan id="Fig:densplot_01.ylab.1.1.tspan.1" dy="4.31" x="0">Density</tspan>
                </text>
              </g>
            </g>
          </g>
        </g>
        <g id="Fig:densplot_01.figure.vp.1"/>
        <defs>
          <clipPath id="Fig:densplot_01.panel.1.1.vp.1.clipPath">
            <rect x="44.8" y="42.19" width="231.2" height="191.81" fill="none" stroke="none"/>
          </clipPath>
        </defs>
        <g id="Fig:densplot_01.panel.1.1.vp.1" clip-path="url(#Fig:densplot_01.panel.1.1.vp.1.clipPath)"/>
        <g id="Fig:densplot_01.strip.1.1.off.vp.1"/>
        <g id="Fig:densplot_01.strip.left.1.1.off.vp.1">
          <g id="Fig:densplot_01.ticks.left.panel.1.1.1">
            <polyline id="Fig:densplot_01.ticks.left.panel.1.1.1.1" points="44.8,53.95 39.13,53.95" stroke="rgb(0,0,0)" opacity="1" stroke-dasharray="none" stroke-width="0.75" stroke-opacity="1" fill="none"/>
            <polyline id="Fig:densplot_01.ticks.left.panel.1.1.1.2" points="44.8,99.68 39.13,99.68" stroke="rgb(0,0,0)" opacity="1" stroke-dasharray="none" stroke-width="0.75" stroke-opacity="1" fill="none"/>
            <polyline id="Fig:densplot_01.ticks.left.panel.1.1.1.3" points="44.8,145.42 39.13,145.42" stroke="rgb(0,0,0)" opacity="1" stroke-dasharray="none" stroke-width="0.75" stroke-opacity="1" fill="none"/>
            <polyline id="Fig:densplot_01.ticks.left.panel.1.1.1.4" points="44.8,191.16 39.13,191.16" stroke="rgb(0,0,0)" opacity="1" stroke-dasharray="none" stroke-width="0.75" stroke-opacity="1" fill="none"/>
          </g>
          <g id="Fig:densplot_01.ticklabels.left.panel.1.1.1">
            <g id="Fig:densplot_01.ticklabels.left.panel.1.1.1.1" transform="translate(33.47, 53.95)" stroke-width="0.1">
              <g id="Fig:densplot_01.ticklabels.left.panel.1.1.1.1.scale" transform="scale(1, -1)">
                <text x="0" y="0" id="Fig:densplot_01.ticklabels.left.panel.1.1.1.1.text" transform="rotate(-90)" text-anchor="middle" stroke="rgb(0,0,0)" opacity="1" fill="rgb(0,0,0)" stroke-opacity="1" fill-opacity="1" font-size="9.6" font-weight="normal" font-style="normal">
                  <tspan id="Fig:densplot_01.ticklabels.left.panel.1.1.1.1.tspan.1" dy="0" x="0">0.00</tspan>
                </text>
              </g>
            </g>
            <g id="Fig:densplot_01.ticklabels.left.panel.1.1.1.2" transform="translate(33.47, 99.68)" stroke-width="0.1">
              <g id="Fig:densplot_01.ticklabels.left.panel.1.1.1.2.scale" transform="scale(1, -1)">
                <text x="0" y="0" id="Fig:densplot_01.ticklabels.left.panel.1.1.1.2.text" transform="rotate(-90)" text-anchor="middle" stroke="rgb(0,0,0)" opacity="1" fill="rgb(0,0,0)" stroke-opacity="1" fill-opacity="1" font-size="9.6" font-weight="normal" font-style="normal">
                  <tspan id="Fig:densplot_01.ticklabels.left.panel.1.1.1.2.tspan.1" dy="0" x="0">0.05</tspan>
                </text>
              </g>
            </g>
            <g id="Fig:densplot_01.ticklabels.left.panel.1.1.1.3" transform="translate(33.47, 145.42)" stroke-width="0.1">
              <g id="Fig:densplot_01.ticklabels.left.panel.1.1.1.3.scale" transform="scale(1, -1)">
                <text x="0" y="0" id="Fig:densplot_01.ticklabels.left.panel.1.1.1.3.text" transform="rotate(-90)" text-anchor="middle" stroke="rgb(0,0,0)" opacity="1" fill="rgb(0,0,0)" stroke-opacity="1" fill-opacity="1" font-size="9.6" font-weight="normal" font-style="normal">
                  <tspan id="Fig:densplot_01.ticklabels.left.panel.1.1.1.3.tspan.1" dy="0" x="0">0.10</tspan>
                </text>
              </g>
            </g>
            <g id="Fig:densplot_01.ticklabels.left.panel.1.1.1.4" transform="translate(33.47, 191.16)" stroke-width="0.1">
              <g id="Fig:densplot_01.ticklabels.left.panel.1.1.1.4.scale" transform="scale(1, -1)">
                <text x="0" y="0" id="Fig:densplot_01.ticklabels.left.panel.1.1.1.4.text" transform="rotate(-90)" text-anchor="middle" stroke="rgb(0,0,0)" opacity="1" fill="rgb(0,0,0)" stroke-opacity="1" fill-opacity="1" font-size="9.6" font-weight="normal" font-style="normal">
                  <tspan id="Fig:densplot_01.ticklabels.left.panel.1.1.1.4.tspan.1" dy="0" x="0">0.15</tspan>
                </text>
              </g>
            </g>
          </g>
        </g>
        <g id="Fig:densplot_01.panel.1.1.off.vp.1">
          <g id="Fig:densplot_01.ticks.bottom.panel.1.1.1">
            <polyline id="Fig:densplot_01.ticks.bottom.panel.1.1.1.1" points="74.48,42.19 74.48,36.52" stroke="rgb(0,0,0)" opacity="1" stroke-dasharray="none" stroke-width="0.75" stroke-opacity="1" fill="none"/>
            <polyline id="Fig:densplot_01.ticks.bottom.panel.1.1.1.2" points="113.47,42.19 113.47,36.52" stroke="rgb(0,0,0)" opacity="1" stroke-dasharray="none" stroke-width="0.75" stroke-opacity="1" fill="none"/>
            <polyline id="Fig:densplot_01.ticks.bottom.panel.1.1.1.3" points="152.45,42.19 152.45,36.52" stroke="rgb(0,0,0)" opacity="1" stroke-dasharray="none" stroke-width="0.75" stroke-opacity="1" fill="none"/>
            <polyline id="Fig:densplot_01.ticks.bottom.panel.1.1.1.4" points="191.44,42.19 191.44,36.52" stroke="rgb(0,0,0)" opacity="1" stroke-dasharray="none" stroke-width="0.75" stroke-opacity="1" fill="none"/>
            <polyline id="Fig:densplot_01.ticks.bottom.panel.1.1.1.5" points="230.42,42.19 230.42,36.52" stroke="rgb(0,0,0)" opacity="1" stroke-dasharray="none" stroke-width="0.75" stroke-opacity="1" fill="none"/>
            <polyline id="Fig:densplot_01.ticks.bottom.panel.1.1.1.6" points="269.41,42.19 269.41,36.52" stroke="rgb(0,0,0)" opacity="1" stroke-dasharray="none" stroke-width="0.75" stroke-opacity="1" fill="none"/>
          </g>
          <g id="Fig:densplot_01.ticklabels.bottom.panel.1.1.1">
            <g id="Fig:densplot_01.ticklabels.bottom.panel.1.1.1.1" transform="translate(74.48, 30.85)" stroke-width="0.1">
              <g id="Fig:densplot_01.ticklabels.bottom.panel.1.1.1.1.scale" transform="scale(1, -1)">
                <text x="0" y="0" id="Fig:densplot_01.ticklabels.bottom.panel.1.1.1.1.text" text-anchor="middle" stroke="rgb(0,0,0)" opacity="1" fill="rgb(0,0,0)" stroke-opacity="1" fill-opacity="1" font-size="9.6" font-weight="normal" font-style="normal">
                  <tspan id="Fig:densplot_01.ticklabels.bottom.panel.1.1.1.1.tspan.1" dy="7.18" x="0">2</tspan>
                </text>
              </g>
            </g>
            <g id="Fig:densplot_01.ticklabels.bottom.panel.1.1.1.2" transform="translate(113.47, 30.85)" stroke-width="0.1">
              <g id="Fig:densplot_01.ticklabels.bottom.panel.1.1.1.2.scale" transform="scale(1, -1)">
                <text x="0" y="0" id="Fig:densplot_01.ticklabels.bottom.panel.1.1.1.2.text" text-anchor="middle" stroke="rgb(0,0,0)" opacity="1" fill="rgb(0,0,0)" stroke-opacity="1" fill-opacity="1" font-size="9.6" font-weight="normal" font-style="normal">
                  <tspan id="Fig:densplot_01.ticklabels.bottom.panel.1.1.1.2.tspan.1" dy="7.18" x="0">4</tspan>
                </text>
              </g>
            </g>
            <g id="Fig:densplot_01.ticklabels.bottom.panel.1.1.1.3" transform="translate(152.45, 30.85)" stroke-width="0.1">
              <g id="Fig:densplot_01.ticklabels.bottom.panel.1.1.1.3.scale" transform="scale(1, -1)">
                <text x="0" y="0" id="Fig:densplot_01.ticklabels.bottom.panel.1.1.1.3.text" text-anchor="middle" stroke="rgb(0,0,0)" opacity="1" fill="rgb(0,0,0)" stroke-opacity="1" fill-opacity="1" font-size="9.6" font-weight="normal" font-style="normal">
                  <tspan id="Fig:densplot_01.ticklabels.bottom.panel.1.1.1.3.tspan.1" dy="7.18" x="0">6</tspan>
                </text>
              </g>
            </g>
            <g id="Fig:densplot_01.ticklabels.bottom.panel.1.1.1.4" transform="translate(191.44, 30.85)" stroke-width="0.1">
              <g id="Fig:densplot_01.ticklabels.bottom.panel.1.1.1.4.scale" transform="scale(1, -1)">
                <text x="0" y="0" id="Fig:densplot_01.ticklabels.bottom.panel.1.1.1.4.text" text-anchor="middle" stroke="rgb(0,0,0)" opacity="1" fill="rgb(0,0,0)" stroke-opacity="1" fill-opacity="1" font-size="9.6" font-weight="normal" font-style="normal">
                  <tspan id="Fig:densplot_01.ticklabels.bottom.panel.1.1.1.4.tspan.1" dy="7.18" x="0">8</tspan>
                </text>
              </g>
            </g>
            <g id="Fig:densplot_01.ticklabels.bottom.panel.1.1.1.5" transform="translate(230.42, 30.85)" stroke-width="0.1">
              <g id="Fig:densplot_01.ticklabels.bottom.panel.1.1.1.5.scale" transform="scale(1, -1)">
                <text x="0" y="0" id="Fig:densplot_01.ticklabels.bottom.panel.1.1.1.5.text" text-anchor="middle" stroke="rgb(0,0,0)" opacity="1" fill="rgb(0,0,0)" stroke-opacity="1" fill-opacity="1" font-size="9.6" font-weight="normal" font-style="normal">
                  <tspan id="Fig:densplot_01.ticklabels.bottom.panel.1.1.1.5.tspan.1" dy="7.18" x="0">10</tspan>
                </text>
              </g>
            </g>
            <g id="Fig:densplot_01.ticklabels.bottom.panel.1.1.1.6" transform="translate(269.41, 30.85)" stroke-width="0.1">
              <g id="Fig:densplot_01.ticklabels.bottom.panel.1.1.1.6.scale" transform="scale(1, -1)">
                <text x="0" y="0" id="Fig:densplot_01.ticklabels.bottom.panel.1.1.1.6.text" text-anchor="middle" stroke="rgb(0,0,0)" opacity="1" fill="rgb(0,0,0)" stroke-opacity="1" fill-opacity="1" font-size="9.6" font-weight="normal" font-style="normal">
                  <tspan id="Fig:densplot_01.ticklabels.bottom.panel.1.1.1.6.tspan.1" dy="7.18" x="0">12</tspan>
                </text>
              </g>
            </g>
          </g>
        </g>
        <defs>
          <clipPath id="Fig:densplot_01.panel.1.1.vp.2.clipPath">
            <rect x="44.8" y="42.19" width="231.2" height="191.81" fill="none" stroke="none"/>
          </clipPath>
        </defs>
        <g id="Fig:densplot_01.panel.1.1.vp.2" clip-path="url(#Fig:densplot_01.panel.1.1.vp.2.clipPath)">
          <g id="Fig:densplot_01.xyplot.lines.group.1.panel.1.1.1">
            <polyline id="Fig:densplot_01.xyplot.lines.group.1.panel.1.1.1.1" points="59.13,54 59.53,54.02 59.92,54.04 60.32,54.07 60.72,54.11 61.11,54.15 61.51,54.21 61.91,54.29 62.3,54.38 62.7,54.48 63.09,54.62 63.49,54.78 63.89,54.98 64.28,55.21 64.68,55.48 65.08,55.79 65.47,56.16 65.87,56.58 66.27,57.07 66.66,57.63 67.06,58.25 67.45,58.94 67.85,59.71 68.25,60.56 68.64,61.5 69.04,62.52 69.44,63.61 69.83,64.79 70.23,66.04 70.63,67.36 71.02,68.76 71.42,70.22 71.81,71.73 72.21,73.3 72.61,74.9 73,76.54 73.4,78.2 73.8,79.89 74.19,81.58 74.59,83.28 74.99,84.97 75.38,86.66 75.78,88.33 76.17,89.98 76.57,91.61 76.97,93.21 77.36,94.79 77.76,96.34 78.16,97.86 78.55,99.35 78.95,100.81 79.35,102.24 79.74,103.64 80.14,105.01 80.53,106.36 80.93,107.67 81.33,108.96 81.72,110.21 82.12,111.44 82.52,112.63 82.91,113.8 83.31,114.94 83.71,116.04 84.1,117.11 84.5,118.14 84.89,119.14 85.29,120.1 85.69,121.04 86.08,121.94 86.48,122.81 86.88,123.64 87.27,124.45 87.67,125.24 88.07,126.01 88.46,126.76 88.86,127.49 89.25,128.21 89.65,128.93 90.05,129.64 90.44,130.36 90.84,131.08 91.24,131.8 91.63,132.54 92.03,133.29 92.43,134.06 92.82,134.84 93.22,135.65 93.61,136.47 94.01,137.31 94.41,138.17 94.8,139.05 95.2,139.95 95.6,140.86 95.99,141.79 96.39,142.74 96.79,143.7 97.18,144.67 97.58,145.64 97.97,146.63 98.37,147.62 98.77,148.61 99.16,149.6 99.56,150.59 99.96,151.57 100.35,152.55 100.75,153.51 101.15,154.47 101.54,155.41 101.94,156.34 102.34,157.25 102.73,158.14 103.13,159.02 103.52,159.88 103.92,160.71 104.32,161.53 104.71,162.33 105.11,163.11 105.51,163.87 105.9,164.62 106.3,165.35 106.7,166.07 107.09,166.78 107.49,167.48 107.88,168.18 108.28,168.88 108.68,169.57 109.07,170.28 109.47,170.99 109.87,171.71 110.26,172.44 110.66,173.19 111.06,173.96 111.45,174.75 111.85,175.55 112.24,176.38 112.64,177.23 113.04,178.11 113.43,179.01 113.83,179.94 114.23,180.88 114.62,181.84 115.02,182.83 115.42,183.82 115.81,184.83 116.21,185.85 116.6,186.88 117,187.91 117.4,188.94 117.79,189.96 118.19,190.97 118.59,191.97 118.98,192.96 119.38,193.92 119.78,194.86 120.17,195.77 120.57,196.65 120.96,197.5 121.36,198.32 121.76,199.09 122.15,199.84 122.55,200.54 122.95,201.21 123.34,201.85 123.74,202.45 124.14,203.02 124.53,203.56 124.93,204.08 125.32,204.58 125.72,205.05 126.12,205.51 126.51,205.96 126.91,206.39 127.31,206.82 127.7,207.24 128.1,207.67 128.5,208.09 128.89,208.51 129.29,208.93 129.68,209.35 130.08,209.78 130.48,210.2 130.87,210.62 131.27,211.04 131.67,211.46 132.06,211.86 132.46,212.25 132.86,212.63 133.25,213 133.65,213.34 134.04,213.67 134.44,213.96 134.84,214.23 135.23,214.46 135.63,214.67 136.03,214.84 136.42,214.98 136.82,215.08 137.22,215.14 137.61,215.17 138.01,215.16 138.4,215.11 138.8,215.03 139.2,214.91 139.59,214.76 139.99,214.57 140.39,214.35 140.78,214.09 141.18,213.81 141.58,213.49 141.97,213.15 142.37,212.77 142.76,212.36 143.16,211.93 143.56,211.48 143.95,211 144.35,210.51 144.75,210 145.14,209.47 145.54,208.93 145.94,208.39 146.33,207.84 146.73,207.29 147.12,206.74 147.52,206.2 147.92,205.67 148.31,205.14 148.71,204.63 149.11,204.12 149.5,203.63 149.9,203.15 150.3,202.69 150.69,202.24 151.09,201.79 151.48,201.36 151.88,200.93 152.28,200.5 152.67,200.08 153.07,199.66 153.47,199.24 153.86,198.82 154.26,198.4 154.66,197.97 155.05,197.54 155.45,197.1 155.84,196.66 156.24,196.22 156.64,195.78 157.03,195.34 157.43,194.9 157.83,194.46 158.22,194.03 158.62,193.61 159.02,193.21 159.41,192.81 159.81,192.44 160.21,192.07 160.6,191.73 161,191.41 161.39,191.11 161.79,190.83 162.19,190.57 162.58,190.33 162.98,190.11 163.38,189.9 163.77,189.71 164.17,189.54 164.57,189.37 164.96,189.22 165.36,189.07 165.75,188.93 166.15,188.79 166.55,188.65 166.94,188.5 167.34,188.36 167.74,188.21 168.13,188.06 168.53,187.9 168.93,187.74 169.32,187.57 169.72,187.39 170.11,187.21 170.51,187.03 170.91,186.84 171.3,186.65 171.7,186.45 172.1,186.26 172.49,186.06 172.89,185.86 173.29,185.66 173.68,185.45 174.08,185.25 174.47,185.04 174.87,184.83 175.27,184.61 175.66,184.39 176.06,184.16 176.46,183.93 176.85,183.68 177.25,183.43 177.65,183.16 178.04,182.88 178.44,182.59 178.83,182.29 179.23,181.98 179.63,181.66 180.02,181.33 180.42,180.99 180.82,180.64 181.21,180.29 181.61,179.94 182.01,179.59 182.4,179.23 182.8,178.88 183.19,178.53 183.59,178.19 183.99,177.85 184.38,177.52 184.78,177.19 185.18,176.86 185.57,176.54 185.97,176.21 186.37,175.89 186.76,175.56 187.16,175.23 187.55,174.89 187.95,174.55 188.35,174.19 188.74,173.82 189.14,173.44 189.54,173.04 189.93,172.63 190.33,172.19 190.73,171.75 191.12,171.28 191.52,170.8 191.91,170.31 192.31,169.8 192.71,169.27 193.1,168.72 193.5,168.16 193.9,167.59 194.29,167 194.69,166.39 195.09,165.77 195.48,165.13 195.88,164.47 196.27,163.8 196.67,163.11 197.07,162.41 197.46,161.69 197.86,160.95 198.26,160.19 198.65,159.42 199.05,158.64 199.45,157.84 199.84,157.03 200.24,156.2 200.63,155.37 201.03,154.53 201.43,153.68 201.82,152.83 202.22,151.97 202.62,151.11 203.01,150.25 203.41,149.39 203.81,148.52 204.2,147.65 204.6,146.78 204.99,145.91 205.39,145.03 205.79,144.15 206.18,143.27 206.58,142.37 206.98,141.47 207.37,140.56 207.77,139.64 208.17,138.71 208.56,137.76 208.96,136.8 209.35,135.83 209.75,134.85 210.15,133.86 210.54,132.86 210.94,131.84 211.34,130.82 211.73,129.8 212.13,128.77 212.53,127.74 212.92,126.71 213.32,125.68 213.71,124.66 214.11,123.64 214.51,122.64 214.9,121.64 215.3,120.65 215.7,119.67 216.09,118.71 216.49,117.76 216.89,116.82 217.28,115.89 217.68,114.97 218.08,114.07 218.47,113.18 218.87,112.3 219.26,111.43 219.66,110.57 220.06,109.72 220.45,108.88 220.85,108.05 221.25,107.23 221.64,106.42 222.04,105.61 222.44,104.82 222.83,104.04 223.23,103.27 223.62,102.51 224.02,101.76 224.42,101.02 224.81,100.3 225.21,99.58 225.61,98.88 226,98.19 226.4,97.52 226.8,96.85 227.19,96.19 227.59,95.55 227.98,94.91 228.38,94.28 228.78,93.66 229.17,93.05 229.57,92.44 229.97,91.83 230.36,91.23 230.76,90.63 231.16,90.04 231.55,89.44 231.95,88.85 232.34,88.26 232.74,87.67 233.14,87.09 233.53,86.51 233.93,85.93 234.33,85.35 234.72,84.79 235.12,84.22 235.52,83.66 235.91,83.11 236.31,82.56 236.7,82.02 237.1,81.48 237.5,80.95 237.89,80.42 238.29,79.89 238.69,79.36 239.08,78.83 239.48,78.29 239.88,77.75 240.27,77.2 240.67,76.64 241.06,76.06 241.46,75.47 241.86,74.87 242.25,74.25 242.65,73.61 243.05,72.94 243.44,72.26 243.84,71.56 244.24,70.85 244.63,70.11 245.03,69.36 245.42,68.59 245.82,67.82 246.22,67.04 246.61,66.25 247.01,65.47 247.41,64.69 247.8,63.92 248.2,63.17 248.6,62.43 248.99,61.71 249.39,61.02 249.78,60.36 250.18,59.73 250.58,59.13 250.97,58.58 251.37,58.06 251.77,57.57 252.16,57.12 252.56,56.72 252.96,56.35 253.35,56.02 253.75,55.72 254.14,55.46 254.54,55.22 254.94,55.02 255.33,54.84 255.73,54.69 256.13,54.56 256.52,54.45 256.92,54.36 257.32,54.28 257.71,54.21 258.11,54.16 258.5,54.11 258.9,54.08 259.3,54.05 259.69,54.03 260.09,54.01 260.49,53.99 260.88,53.98 261.28,53.97 261.68,53.97" stroke-dasharray="none" stroke="rgb(31,120,180)" stroke-width="0.75" opacity="1" stroke-opacity="1" fill="none"/>
          </g>
          <g id="Fig:densplot_01.xyplot.lines.group.2.panel.1.1.1">
            <polyline id="Fig:densplot_01.xyplot.lines.group.2.panel.1.1.1.1" points="59.12,53.99 59.52,54.01 59.92,54.03 60.31,54.05 60.71,54.08 61.1,54.13 61.5,54.18 61.9,54.24 62.29,54.32 62.69,54.42 63.09,54.53 63.48,54.68 63.88,54.86 64.28,55.06 64.67,55.31 65.07,55.6 65.47,55.93 65.86,56.32 66.26,56.77 66.66,57.29 67.05,57.87 67.45,58.52 67.84,59.24 68.24,60.04 68.64,60.93 69.03,61.91 69.43,62.96 69.83,64.1 70.22,65.31 70.62,66.6 71.02,67.96 71.41,69.4 71.81,70.9 72.21,72.44 72.6,74.04 73,75.67 73.4,77.33 73.79,79.02 74.19,80.72 74.59,82.42 74.98,84.12 75.38,85.81 75.77,87.49 76.17,89.14 76.57,90.76 76.96,92.36 77.36,93.91 77.76,95.44 78.15,96.93 78.55,98.38 78.95,99.8 79.34,101.17 79.74,102.52 80.14,103.83 80.53,105.12 80.93,106.38 81.33,107.62 81.72,108.83 82.12,110.03 82.51,111.21 82.91,112.38 83.31,113.53 83.7,114.68 84.1,115.81 84.5,116.93 84.89,118.05 85.29,119.15 85.69,120.25 86.08,121.34 86.48,122.41 86.88,123.47 87.27,124.51 87.67,125.54 88.07,126.55 88.46,127.54 88.86,128.52 89.26,129.47 89.65,130.4 90.05,131.3 90.44,132.18 90.84,133.05 91.24,133.89 91.63,134.71 92.03,135.51 92.43,136.29 92.82,137.06 93.22,137.81 93.62,138.55 94.01,139.29 94.41,140.02 94.81,140.74 95.2,141.46 95.6,142.18 96,142.91 96.39,143.64 96.79,144.38 97.18,145.12 97.58,145.88 97.98,146.65 98.37,147.43 98.77,148.21 99.17,149.01 99.56,149.82 99.96,150.64 100.36,151.47 100.75,152.31 101.15,153.15 101.55,154 101.94,154.86 102.34,155.71 102.74,156.57 103.13,157.43 103.53,158.3 103.93,159.16 104.32,160.02 104.72,160.89 105.11,161.75 105.51,162.62 105.91,163.48 106.3,164.36 106.7,165.23 107.1,166.11 107.49,167 107.89,167.89 108.29,168.8 108.68,169.71 109.08,170.63 109.48,171.55 109.87,172.49 110.27,173.43 110.67,174.38 111.06,175.34 111.46,176.3 111.85,177.27 112.25,178.24 112.65,179.21 113.04,180.18 113.44,181.16 113.84,182.13 114.23,183.1 114.63,184.07 115.03,185.04 115.42,186.01 115.82,186.98 116.22,187.95 116.61,188.92 117.01,189.88 117.41,190.85 117.8,191.81 118.2,192.77 118.6,193.72 118.99,194.67 119.39,195.61 119.78,196.54 120.18,197.45 120.58,198.35 120.97,199.23 121.37,200.08 121.77,200.92 122.16,201.72 122.56,202.5 122.96,203.25 123.35,203.98 123.75,204.67 124.15,205.33 124.54,205.96 124.94,206.56 125.34,207.15 125.73,207.7 126.13,208.24 126.52,208.76 126.92,209.26 127.32,209.74 127.71,210.22 128.11,210.68 128.51,211.13 128.9,211.57 129.3,212 129.7,212.42 130.09,212.83 130.49,213.23 130.89,213.61 131.28,213.97 131.68,214.31 132.08,214.63 132.47,214.93 132.87,215.2 133.26,215.44 133.66,215.65 134.06,215.84 134.45,215.98 134.85,216.09 135.25,216.18 135.64,216.22 136.04,216.24 136.44,216.22 136.83,216.17 137.23,216.08 137.63,215.96 138.02,215.81 138.42,215.62 138.82,215.41 139.21,215.17 139.61,214.9 140.01,214.59 140.4,214.26 140.8,213.89 141.19,213.51 141.59,213.09 141.99,212.66 142.38,212.19 142.78,211.7 143.18,211.2 143.57,210.67 143.97,210.14 144.37,209.58 144.76,209.02 145.16,208.45 145.56,207.87 145.95,207.28 146.35,206.7 146.75,206.11 147.14,205.53 147.54,204.96 147.93,204.39 148.33,203.82 148.73,203.27 149.12,202.72 149.52,202.18 149.92,201.65 150.31,201.13 150.71,200.62 151.11,200.12 151.5,199.63 151.9,199.15 152.3,198.67 152.69,198.2 153.09,197.74 153.49,197.29 153.88,196.83 154.28,196.39 154.68,195.95 155.07,195.51 155.47,195.08 155.86,194.66 156.26,194.23 156.66,193.82 157.05,193.4 157.45,192.99 157.85,192.58 158.24,192.18 158.64,191.78 159.04,191.39 159.43,190.99 159.83,190.6 160.23,190.21 160.62,189.83 161.02,189.44 161.42,189.06 161.81,188.69 162.21,188.31 162.6,187.94 163,187.57 163.4,187.22 163.79,186.87 164.19,186.52 164.59,186.19 164.98,185.88 165.38,185.57 165.78,185.29 166.17,185.02 166.57,184.78 166.97,184.56 167.36,184.36 167.76,184.18 168.16,184.02 168.55,183.89 168.95,183.79 169.35,183.71 169.74,183.64 170.14,183.59 170.53,183.56 170.93,183.54 171.33,183.53 171.72,183.52 172.12,183.52 172.52,183.52 172.91,183.5 173.31,183.49 173.71,183.46 174.1,183.41 174.5,183.34 174.9,183.26 175.29,183.16 175.69,183.04 176.09,182.9 176.48,182.74 176.88,182.55 177.27,182.35 177.67,182.14 178.07,181.91 178.46,181.67 178.86,181.43 179.26,181.17 179.65,180.91 180.05,180.65 180.45,180.38 180.84,180.12 181.24,179.86 181.64,179.6 182.03,179.34 182.43,179.08 182.83,178.83 183.22,178.57 183.62,178.31 184.02,178.05 184.41,177.78 184.81,177.51 185.2,177.23 185.6,176.94 186,176.65 186.39,176.34 186.79,176.01 187.19,175.68 187.58,175.32 187.98,174.95 188.38,174.56 188.77,174.16 189.17,173.73 189.57,173.29 189.96,172.83 190.36,172.35 190.76,171.85 191.15,171.33 191.55,170.8 191.94,170.25 192.34,169.68 192.74,169.1 193.13,168.51 193.53,167.9 193.93,167.28 194.32,166.65 194.72,166.01 195.12,165.36 195.51,164.71 195.91,164.05 196.31,163.38 196.7,162.71 197.1,162.03 197.5,161.35 197.89,160.66 198.29,159.96 198.68,159.26 199.08,158.56 199.48,157.85 199.87,157.14 200.27,156.42 200.67,155.69 201.06,154.95 201.46,154.21 201.86,153.46 202.25,152.71 202.65,151.94 203.05,151.17 203.44,150.39 203.84,149.6 204.24,148.81 204.63,148 205.03,147.18 205.43,146.36 205.82,145.52 206.22,144.67 206.61,143.81 207.01,142.94 207.41,142.05 207.8,141.15 208.2,140.23 208.6,139.29 208.99,138.34 209.39,137.38 209.79,136.39 210.18,135.39 210.58,134.38 210.98,133.34 211.37,132.3 211.77,131.23 212.17,130.16 212.56,129.08 212.96,127.98 213.35,126.88 213.75,125.78 214.15,124.67 214.54,123.56 214.94,122.46 215.34,121.36 215.73,120.27 216.13,119.2 216.53,118.14 216.92,117.09 217.32,116.06 217.72,115.05 218.11,114.06 218.51,113.09 218.91,112.15 219.3,111.23 219.7,110.33 220.1,109.45 220.49,108.59 220.89,107.75 221.28,106.94 221.68,106.14 222.08,105.36 222.47,104.59 222.87,103.84 223.27,103.1 223.66,102.37 224.06,101.66 224.46,100.96 224.85,100.27 225.25,99.58 225.65,98.91 226.04,98.25 226.44,97.6 226.84,96.95 227.23,96.32 227.63,95.69 228.02,95.08 228.42,94.47 228.82,93.87 229.21,93.28 229.61,92.7 230.01,92.12 230.4,91.55 230.8,90.99 231.2,90.43 231.59,89.88 231.99,89.34 232.39,88.8 232.78,88.26 233.18,87.72 233.58,87.19 233.97,86.66 234.37,86.14 234.77,85.61 235.16,85.09 235.56,84.57 235.95,84.05 236.35,83.52 236.75,83 237.14,82.47 237.54,81.94 237.94,81.4 238.33,80.86 238.73,80.31 239.13,79.74 239.52,79.17 239.92,78.59 240.32,77.99 240.71,77.37 241.11,76.74 241.51,76.09 241.9,75.43 242.3,74.74 242.69,74.04 243.09,73.31 243.49,72.57 243.88,71.82 244.28,71.04 244.68,70.26 245.07,69.46 245.47,68.65 245.87,67.84 246.26,67.02 246.66,66.21 247.06,65.4 247.45,64.6 247.85,63.82 248.25,63.05 248.64,62.3 249.04,61.58 249.44,60.89 249.83,60.22 250.23,59.6 250.62,59.01 251.02,58.45 251.42,57.94 251.81,57.46 252.21,57.02 252.61,56.62 253,56.26 253.4,55.94 253.8,55.65 254.19,55.4 254.59,55.17 254.99,54.97 255.38,54.8 255.78,54.66 256.18,54.53 256.57,54.42 256.97,54.33 257.36,54.26 257.76,54.2 258.16,54.15 258.55,54.1 258.95,54.07 259.35,54.04 259.74,54.02 260.14,54 260.54,53.99 260.93,53.98 261.33,53.97 261.73,53.97" stroke-dasharray="none" stroke="rgb(31,120,180)" stroke-width="0.75" opacity="1" stroke-opacity="1" fill="none"/>
          </g>
          <g id="Fig:densplot_01.xyplot.lines.group.3.panel.1.1.1">
            <polyline id="Fig:densplot_01.xyplot.lines.group.3.panel.1.1.1.1" points="59,53.99 59.4,54.01 59.79,54.02 60.19,54.05 60.59,54.08 60.98,54.12 61.38,54.17 61.78,54.23 62.18,54.3 62.57,54.4 62.97,54.51 63.37,54.64 63.76,54.81 64.16,55.01 64.56,55.24 64.95,55.51 65.35,55.83 65.75,56.2 66.14,56.62 66.54,57.11 66.94,57.66 67.33,58.28 67.73,58.98 68.13,59.74 68.53,60.59 68.92,61.52 69.32,62.54 69.72,63.64 70.11,64.81 70.51,66.06 70.91,67.39 71.3,68.78 71.7,70.24 72.1,71.77 72.49,73.33 72.89,74.94 73.29,76.59 73.68,78.25 74.08,79.94 74.48,81.64 74.88,83.33 75.27,85.01 75.67,86.68 76.07,88.33 76.46,89.96 76.86,91.55 77.26,93.1 77.65,94.62 78.05,96.1 78.45,97.54 78.84,98.95 79.24,100.32 79.64,101.65 80.03,102.95 80.43,104.22 80.83,105.47 81.23,106.69 81.62,107.9 82.02,109.09 82.42,110.27 82.81,111.44 83.21,112.6 83.61,113.75 84,114.91 84.4,116.06 84.8,117.21 85.19,118.36 85.59,119.5 85.99,120.65 86.38,121.79 86.78,122.93 87.18,124.06 87.58,125.18 87.97,126.29 88.37,127.39 88.77,128.47 89.16,129.55 89.56,130.6 89.96,131.64 90.35,132.66 90.75,133.67 91.15,134.66 91.54,135.63 91.94,136.58 92.34,137.52 92.73,138.44 93.13,139.35 93.53,140.25 93.93,141.13 94.32,142.01 94.72,142.88 95.12,143.75 95.51,144.6 95.91,145.46 96.31,146.32 96.7,147.17 97.1,148.03 97.5,148.88 97.89,149.74 98.29,150.6 98.69,151.46 99.08,152.32 99.48,153.18 99.88,154.05 100.28,154.91 100.67,155.78 101.07,156.65 101.47,157.52 101.86,158.38 102.26,159.25 102.66,160.11 103.05,160.98 103.45,161.84 103.85,162.69 104.24,163.55 104.64,164.4 105.04,165.26 105.43,166.11 105.83,166.96 106.23,167.81 106.63,168.67 107.02,169.53 107.42,170.39 107.82,171.25 108.21,172.12 108.61,173 109.01,173.88 109.4,174.77 109.8,175.66 110.2,176.56 110.59,177.46 110.99,178.38 111.39,179.29 111.78,180.21 112.18,181.12 112.58,182.04 112.98,182.96 113.37,183.87 113.77,184.78 114.17,185.68 114.56,186.57 114.96,187.46 115.36,188.33 115.75,189.19 116.15,190.04 116.55,190.88 116.94,191.71 117.34,192.53 117.74,193.34 118.13,194.14 118.53,194.93 118.93,195.71 119.33,196.49 119.72,197.26 120.12,198.03 120.52,198.8 120.91,199.57 121.31,200.33 121.71,201.1 122.1,201.86 122.5,202.61 122.9,203.37 123.29,204.11 123.69,204.85 124.09,205.58 124.48,206.3 124.88,207 125.28,207.69 125.68,208.36 126.07,209.02 126.47,209.65 126.87,210.26 127.26,210.84 127.66,211.41 128.06,211.94 128.45,212.46 128.85,212.95 129.25,213.41 129.64,213.83 130.04,214.23 130.44,214.6 130.83,214.93 131.23,215.23 131.63,215.49 132.03,215.71 132.42,215.88 132.82,216.01 133.22,216.1 133.61,216.13 134.01,216.12 134.41,216.06 134.8,215.94 135.2,215.77 135.6,215.56 135.99,215.3 136.39,215 136.79,214.65 137.18,214.27 137.58,213.85 137.98,213.4 138.38,212.92 138.77,212.42 139.17,211.91 139.57,211.38 139.96,210.84 140.36,210.29 140.76,209.74 141.15,209.18 141.55,208.63 141.95,208.07 142.34,207.52 142.74,206.97 143.14,206.43 143.53,205.89 143.93,205.35 144.33,204.81 144.73,204.28 145.12,203.74 145.52,203.21 145.92,202.68 146.31,202.15 146.71,201.61 147.11,201.07 147.5,200.54 147.9,199.99 148.3,199.45 148.69,198.91 149.09,198.37 149.49,197.83 149.88,197.29 150.28,196.76 150.68,196.23 151.08,195.71 151.47,195.2 151.87,194.7 152.27,194.21 152.66,193.73 153.06,193.27 153.46,192.82 153.85,192.39 154.25,191.97 154.65,191.56 155.04,191.16 155.44,190.78 155.84,190.4 156.23,190.04 156.63,189.67 157.03,189.31 157.43,188.96 157.82,188.6 158.22,188.24 158.62,187.87 159.01,187.51 159.41,187.14 159.81,186.77 160.2,186.4 160.6,186.03 161,185.66 161.39,185.29 161.79,184.93 162.19,184.57 162.58,184.23 162.98,183.9 163.38,183.58 163.78,183.28 164.17,183 164.57,182.73 164.97,182.48 165.36,182.25 165.76,182.04 166.16,181.84 166.55,181.66 166.95,181.49 167.35,181.33 167.74,181.18 168.14,181.04 168.54,180.9 168.93,180.78 169.33,180.65 169.73,180.53 170.13,180.42 170.52,180.3 170.92,180.19 171.32,180.08 171.71,179.98 172.11,179.88 172.51,179.78 172.9,179.69 173.3,179.6 173.7,179.52 174.09,179.45 174.49,179.39 174.89,179.33 175.28,179.28 175.68,179.23 176.08,179.19 176.48,179.16 176.87,179.13 177.27,179.11 177.67,179.08 178.06,179.06 178.46,179.03 178.86,179 179.25,178.97 179.65,178.92 180.05,178.87 180.44,178.8 180.84,178.72 181.24,178.63 181.63,178.52 182.03,178.4 182.43,178.25 182.83,178.09 183.22,177.91 183.62,177.72 184.02,177.51 184.41,177.29 184.81,177.05 185.21,176.8 185.6,176.55 186,176.29 186.4,176.02 186.79,175.74 187.19,175.47 187.59,175.19 187.98,174.9 188.38,174.61 188.78,174.32 189.18,174.02 189.57,173.72 189.97,173.4 190.37,173.06 190.76,172.71 191.16,172.35 191.56,171.96 191.95,171.54 192.35,171.1 192.75,170.63 193.14,170.13 193.54,169.6 193.94,169.04 194.33,168.45 194.73,167.83 195.13,167.18 195.53,166.5 195.92,165.8 196.32,165.09 196.72,164.35 197.11,163.6 197.51,162.83 197.91,162.06 198.3,161.27 198.7,160.48 199.1,159.69 199.49,158.9 199.89,158.1 200.29,157.3 200.68,156.5 201.08,155.7 201.48,154.9 201.88,154.1 202.27,153.29 202.67,152.49 203.07,151.68 203.46,150.87 203.86,150.05 204.26,149.22 204.65,148.39 205.05,147.56 205.45,146.72 205.84,145.87 206.24,145.02 206.64,144.17 207.03,143.31 207.43,142.44 207.83,141.58 208.23,140.71 208.62,139.84 209.02,138.97 209.42,138.1 209.81,137.23 210.21,136.36 210.61,135.48 211,134.61 211.4,133.73 211.8,132.85 212.19,131.96 212.59,131.07 212.99,130.18 213.38,129.27 213.78,128.36 214.18,127.44 214.58,126.5 214.97,125.56 215.37,124.61 215.77,123.65 216.16,122.68 216.56,121.71 216.96,120.72 217.35,119.73 217.75,118.73 218.15,117.73 218.54,116.73 218.94,115.73 219.34,114.73 219.73,113.73 220.13,112.74 220.53,111.76 220.93,110.79 221.32,109.83 221.72,108.88 222.12,107.95 222.51,107.03 222.91,106.13 223.31,105.25 223.7,104.39 224.1,103.55 224.5,102.73 224.89,101.93 225.29,101.15 225.69,100.39 226.08,99.66 226.48,98.94 226.88,98.24 227.28,97.56 227.67,96.89 228.07,96.24 228.47,95.6 228.86,94.98 229.26,94.37 229.66,93.76 230.05,93.17 230.45,92.58 230.85,92 231.24,91.42 231.64,90.85 232.04,90.28 232.43,89.71 232.83,89.15 233.23,88.58 233.63,88.02 234.02,87.45 234.42,86.89 234.82,86.33 235.21,85.77 235.61,85.21 236.01,84.64 236.4,84.08 236.8,83.52 237.2,82.96 237.59,82.4 237.99,81.85 238.39,81.28 238.78,80.72 239.18,80.16 239.58,79.59 239.98,79.01 240.37,78.43 240.77,77.83 241.17,77.23 241.56,76.61 241.96,75.97 242.36,75.32 242.75,74.64 243.15,73.95 243.55,73.24 243.94,72.5 244.34,71.75 244.74,70.97 245.13,70.18 245.53,69.37 245.93,68.55 246.33,67.72 246.72,66.89 247.12,66.05 247.52,65.22 247.91,64.41 248.31,63.6 248.71,62.81 249.1,62.05 249.5,61.31 249.9,60.61 250.29,59.95 250.69,59.32 251.09,58.73 251.48,58.17 251.88,57.66 252.28,57.2 252.68,56.78 253.07,56.39 253.47,56.05 253.87,55.74 254.26,55.47 254.66,55.23 255.06,55.02 255.45,54.84 255.85,54.69 256.25,54.56 256.64,54.44 257.04,54.35 257.44,54.27 257.83,54.21 258.23,54.15 258.63,54.11 259.03,54.07 259.42,54.05 259.82,54.02 260.22,54.01 260.61,53.99 261.01,53.98 261.41,53.97 261.8,53.97" stroke-dasharray="none" stroke="rgb(31,120,180)" stroke-width="0.75" opacity="1" stroke-opacity="1" fill="none"/>
          </g>
          <g id="Fig:densplot_01.xyplot.lines.group.4.panel.1.1.1">
            <polyline id="Fig:densplot_01.xyplot.lines.group.4.panel.1.1.1.1" points="59.02,54 59.42,54.02 59.82,54.05 60.21,54.08 60.61,54.12 61.01,54.17 61.4,54.23 61.8,54.31 62.2,54.4 62.59,54.52 62.99,54.65 63.39,54.82 63.79,55.02 64.18,55.27 64.58,55.55 64.98,55.88 65.37,56.26 65.77,56.69 66.17,57.19 66.56,57.77 66.96,58.41 67.36,59.13 67.75,59.93 68.15,60.8 68.55,61.75 68.94,62.8 69.34,63.93 69.74,65.14 70.13,66.43 70.53,67.78 70.93,69.21 71.32,70.7 71.72,72.26 72.12,73.86 72.51,75.5 72.91,77.17 73.31,78.87 73.71,80.59 74.1,82.32 74.5,84.05 74.9,85.77 75.29,87.49 75.69,89.18 76.09,90.86 76.48,92.51 76.88,94.12 77.28,95.7 77.67,97.25 78.07,98.77 78.47,100.25 78.86,101.69 79.26,103.09 79.66,104.45 80.05,105.77 80.45,107.06 80.85,108.31 81.24,109.53 81.64,110.71 82.04,111.85 82.44,112.96 82.83,114.04 83.23,115.09 83.63,116.11 84.02,117.1 84.42,118.06 84.82,119 85.21,119.92 85.61,120.82 86.01,121.71 86.4,122.58 86.8,123.44 87.2,124.29 87.59,125.14 87.99,125.99 88.39,126.85 88.78,127.7 89.18,128.56 89.58,129.43 89.97,130.31 90.37,131.21 90.77,132.11 91.16,133.03 91.56,133.95 91.96,134.89 92.36,135.84 92.75,136.8 93.15,137.76 93.55,138.72 93.94,139.69 94.34,140.66 94.74,141.63 95.13,142.6 95.53,143.55 95.93,144.51 96.32,145.45 96.72,146.39 97.12,147.31 97.51,148.23 97.91,149.14 98.31,150.04 98.7,150.94 99.1,151.83 99.5,152.72 99.89,153.6 100.29,154.49 100.69,155.37 101.09,156.25 101.48,157.14 101.88,158.03 102.28,158.92 102.67,159.82 103.07,160.72 103.47,161.62 103.86,162.53 104.26,163.44 104.66,164.35 105.05,165.26 105.45,166.17 105.85,167.08 106.24,167.99 106.64,168.89 107.04,169.78 107.43,170.67 107.83,171.55 108.23,172.42 108.62,173.28 109.02,174.13 109.42,174.96 109.81,175.79 110.21,176.6 110.61,177.41 111.01,178.2 111.4,178.99 111.8,179.76 112.2,180.53 112.59,181.3 112.99,182.07 113.39,182.84 113.78,183.61 114.18,184.4 114.58,185.19 114.97,186 115.37,186.82 115.77,187.67 116.16,188.53 116.56,189.42 116.96,190.33 117.35,191.26 117.75,192.21 118.15,193.18 118.54,194.16 118.94,195.16 119.34,196.16 119.74,197.17 120.13,198.16 120.53,199.15 120.93,200.13 121.32,201.07 121.72,201.99 122.12,202.87 122.51,203.71 122.91,204.5 123.31,205.25 123.7,205.95 124.1,206.59 124.5,207.18 124.89,207.72 125.29,208.21 125.69,208.65 126.08,209.05 126.48,209.4 126.88,209.72 127.27,210.02 127.67,210.28 128.07,210.53 128.47,210.77 128.86,210.99 129.26,211.21 129.66,211.43 130.05,211.66 130.45,211.88 130.85,212.12 131.24,212.36 131.64,212.61 132.04,212.86 132.43,213.13 132.83,213.39 133.23,213.66 133.62,213.92 134.02,214.18 134.42,214.42 134.81,214.66 135.21,214.87 135.61,215.06 136,215.22 136.4,215.36 136.8,215.46 137.19,215.52 137.59,215.53 137.99,215.51 138.39,215.43 138.78,215.31 139.18,215.15 139.58,214.92 139.97,214.64 140.37,214.31 140.77,213.92 141.16,213.49 141.56,213 141.96,212.46 142.35,211.87 142.75,211.23 143.15,210.55 143.54,209.83 143.94,209.07 144.34,208.28 144.73,207.47 145.13,206.63 145.53,205.77 145.92,204.91 146.32,204.04 146.72,203.17 147.12,202.31 147.51,201.47 147.91,200.64 148.31,199.83 148.7,199.04 149.1,198.29 149.5,197.56 149.89,196.86 150.29,196.2 150.69,195.57 151.08,194.97 151.48,194.4 151.88,193.85 152.27,193.33 152.67,192.83 153.07,192.36 153.46,191.9 153.86,191.46 154.26,191.03 154.65,190.61 155.05,190.19 155.45,189.79 155.84,189.4 156.24,189.01 156.64,188.63 157.04,188.26 157.43,187.9 157.83,187.54 158.23,187.2 158.62,186.87 159.02,186.55 159.42,186.25 159.81,185.97 160.21,185.7 160.61,185.45 161,185.22 161.4,185.01 161.8,184.82 162.19,184.65 162.59,184.5 162.99,184.37 163.38,184.26 163.78,184.17 164.18,184.1 164.57,184.03 164.97,183.98 165.37,183.94 165.77,183.9 166.16,183.86 166.56,183.82 166.96,183.78 167.35,183.74 167.75,183.68 168.15,183.62 168.54,183.54 168.94,183.44 169.34,183.33 169.73,183.2 170.13,183.06 170.53,182.91 170.92,182.74 171.32,182.56 171.72,182.37 172.11,182.17 172.51,181.97 172.91,181.77 173.3,181.58 173.7,181.39 174.1,181.21 174.5,181.05 174.89,180.89 175.29,180.76 175.69,180.64 176.08,180.53 176.48,180.45 176.88,180.38 177.27,180.33 177.67,180.29 178.07,180.27 178.46,180.25 178.86,180.24 179.26,180.24 179.65,180.24 180.05,180.23 180.45,180.23 180.84,180.21 181.24,180.18 181.64,180.14 182.03,180.08 182.43,180.01 182.83,179.91 183.22,179.8 183.62,179.66 184.02,179.5 184.42,179.31 184.81,179.09 185.21,178.86 185.61,178.6 186,178.31 186.4,178 186.8,177.67 187.19,177.31 187.59,176.93 187.99,176.53 188.38,176.11 188.78,175.66 189.18,175.2 189.57,174.7 189.97,174.19 190.37,173.65 190.76,173.1 191.16,172.52 191.56,171.92 191.95,171.3 192.35,170.65 192.75,169.98 193.15,169.3 193.54,168.59 193.94,167.87 194.34,167.13 194.73,166.37 195.13,165.6 195.53,164.81 195.92,164.02 196.32,163.21 196.72,162.4 197.11,161.58 197.51,160.76 197.91,159.94 198.3,159.11 198.7,158.29 199.1,157.47 199.49,156.65 199.89,155.83 200.29,155.03 200.68,154.22 201.08,153.42 201.48,152.63 201.87,151.84 202.27,151.06 202.67,150.28 203.07,149.51 203.46,148.74 203.86,147.97 204.26,147.2 204.65,146.43 205.05,145.67 205.45,144.89 205.84,144.12 206.24,143.34 206.64,142.55 207.03,141.76 207.43,140.96 207.83,140.15 208.22,139.33 208.62,138.5 209.02,137.67 209.41,136.82 209.81,135.96 210.21,135.09 210.6,134.2 211,133.31 211.4,132.4 211.8,131.48 212.19,130.55 212.59,129.6 212.99,128.64 213.38,127.68 213.78,126.7 214.18,125.71 214.57,124.71 214.97,123.71 215.37,122.7 215.76,121.68 216.16,120.67 216.56,119.65 216.95,118.63 217.35,117.61 217.75,116.59 218.14,115.58 218.54,114.58 218.94,113.58 219.33,112.59 219.73,111.61 220.13,110.65 220.52,109.69 220.92,108.75 221.32,107.83 221.72,106.93 222.11,106.04 222.51,105.17 222.91,104.32 223.3,103.49 223.7,102.68 224.1,101.89 224.49,101.12 224.89,100.37 225.29,99.64 225.68,98.93 226.08,98.24 226.48,97.57 226.87,96.91 227.27,96.26 227.67,95.63 228.06,95.02 228.46,94.41 228.86,93.81 229.25,93.23 229.65,92.65 230.05,92.07 230.45,91.5 230.84,90.94 231.24,90.38 231.64,89.83 232.03,89.28 232.43,88.73 232.83,88.19 233.22,87.65 233.62,87.11 234.02,86.58 234.41,86.05 234.81,85.52 235.21,85 235.6,84.48 236,83.96 236.4,83.44 236.79,82.92 237.19,82.4 237.59,81.88 237.98,81.35 238.38,80.82 238.78,80.29 239.18,79.75 239.57,79.19 239.97,78.62 240.37,78.04 240.76,77.45 241.16,76.84 241.56,76.21 241.95,75.56 242.35,74.89 242.75,74.19 243.14,73.48 243.54,72.75 243.94,72 244.33,71.23 244.73,70.45 245.13,69.65 245.52,68.84 245.92,68.02 246.32,67.2 246.71,66.38 247.11,65.57 247.51,64.76 247.9,63.97 248.3,63.19 248.7,62.44 249.1,61.7 249.49,61 249.89,60.33 250.29,59.7 250.68,59.1 251.08,58.54 251.48,58.01 251.87,57.53 252.27,57.08 252.67,56.68 253.06,56.32 253.46,55.99 253.86,55.69 254.25,55.43 254.65,55.2 255.05,55 255.44,54.83 255.84,54.68 256.24,54.55 256.63,54.44 257.03,54.35 257.43,54.27 257.83,54.21 258.22,54.15 258.62,54.11 259.02,54.08 259.41,54.05 259.81,54.03 260.21,54.01 260.6,53.99 261,53.98 261.4,53.97 261.79,53.97" stroke-dasharray="none" stroke="rgb(31,120,180)" stroke-width="0.75" opacity="1" stroke-opacity="1" fill="none"/>
          </g>
          <g id="Fig:densplot_01.xyplot.lines.group.5.panel.1.1.1">
            <polyline id="Fig:densplot_01.xyplot.lines.group.5.panel.1.1.1.1" points="59.45,53.99 59.84,54.01 60.24,54.03 60.63,54.05 61.03,54.08 61.42,54.12 61.82,54.18 62.22,54.24 62.61,54.32 63.01,54.42 63.4,54.54 63.8,54.69 64.19,54.86 64.59,55.08 64.98,55.33 65.38,55.62 65.77,55.97 66.17,56.36 66.56,56.81 66.96,57.32 67.35,57.91 67.75,58.57 68.14,59.3 68.54,60.1 68.93,60.98 69.33,61.94 69.72,62.98 70.12,64.1 70.51,65.29 70.91,66.55 71.31,67.88 71.7,69.26 72.1,70.69 72.49,72.18 72.89,73.7 73.28,75.25 73.68,76.82 74.07,78.41 74.47,80 74.86,81.59 75.26,83.17 75.65,84.73 76.05,86.27 76.44,87.78 76.84,89.27 77.23,90.71 77.63,92.13 78.02,93.49 78.42,94.82 78.81,96.1 79.21,97.34 79.6,98.54 80,99.71 80.4,100.84 80.79,101.92 81.19,102.98 81.58,104 81.98,105 82.37,105.98 82.77,106.94 83.16,107.89 83.56,108.82 83.95,109.74 84.35,110.66 84.74,111.57 85.14,112.48 85.53,113.4 85.93,114.32 86.32,115.24 86.72,116.16 87.11,117.09 87.51,118.03 87.9,118.97 88.3,119.91 88.7,120.86 89.09,121.81 89.49,122.76 89.88,123.71 90.28,124.66 90.67,125.61 91.07,126.56 91.46,127.51 91.86,128.45 92.25,129.39 92.65,130.33 93.04,131.26 93.44,132.19 93.83,133.11 94.23,134.02 94.62,134.93 95.02,135.82 95.41,136.7 95.81,137.58 96.2,138.44 96.6,139.28 96.99,140.11 97.39,140.92 97.79,141.71 98.18,142.49 98.58,143.25 98.97,144 99.37,144.73 99.76,145.45 100.16,146.15 100.55,146.85 100.95,147.55 101.34,148.24 101.74,148.94 102.13,149.64 102.53,150.35 102.92,151.07 103.32,151.81 103.71,152.56 104.11,153.33 104.5,154.12 104.9,154.94 105.29,155.78 105.69,156.64 106.09,157.52 106.48,158.42 106.88,159.34 107.27,160.28 107.67,161.25 108.06,162.22 108.46,163.21 108.85,164.21 109.25,165.23 109.64,166.25 110.04,167.27 110.43,168.3 110.83,169.33 111.22,170.36 111.62,171.39 112.01,172.41 112.41,173.43 112.8,174.44 113.2,175.45 113.59,176.45 113.99,177.43 114.38,178.42 114.78,179.39 115.18,180.36 115.57,181.33 115.97,182.3 116.36,183.26 116.76,184.23 117.15,185.2 117.55,186.18 117.94,187.17 118.34,188.17 118.73,189.17 119.13,190.19 119.52,191.22 119.92,192.25 120.31,193.29 120.71,194.34 121.1,195.39 121.5,196.43 121.89,197.47 122.29,198.49 122.68,199.5 123.08,200.49 123.48,201.46 123.87,202.39 124.27,203.29 124.66,204.16 125.06,204.99 125.45,205.78 125.85,206.54 126.24,207.25 126.64,207.93 127.03,208.58 127.43,209.19 127.82,209.78 128.22,210.35 128.61,210.89 129.01,211.42 129.4,211.93 129.8,212.44 130.19,212.94 130.59,213.44 130.98,213.94 131.38,214.44 131.77,214.94 132.17,215.44 132.57,215.95 132.96,216.45 133.36,216.95 133.75,217.45 134.15,217.94 134.54,218.42 134.94,218.88 135.33,219.33 135.73,219.75 136.12,220.16 136.52,220.53 136.91,220.87 137.31,221.18 137.7,221.45 138.1,221.68 138.49,221.88 138.89,222.03 139.28,222.14 139.68,222.2 140.07,222.22 140.47,222.2 140.86,222.13 141.26,222.02 141.66,221.86 142.05,221.66 142.45,221.41 142.84,221.13 143.24,220.81 143.63,220.45 144.03,220.06 144.42,219.64 144.82,219.18 145.21,218.7 145.61,218.2 146,217.69 146.4,217.15 146.79,216.61 147.19,216.05 147.58,215.5 147.98,214.94 148.37,214.38 148.77,213.82 149.16,213.27 149.56,212.73 149.96,212.2 150.35,211.67 150.75,211.16 151.14,210.66 151.54,210.17 151.93,209.68 152.33,209.21 152.72,208.75 153.12,208.29 153.51,207.84 153.91,207.4 154.3,206.96 154.7,206.52 155.09,206.09 155.49,205.66 155.88,205.23 156.28,204.8 156.67,204.38 157.07,203.95 157.46,203.53 157.86,203.11 158.25,202.69 158.65,202.28 159.05,201.87 159.44,201.46 159.84,201.05 160.23,200.65 160.63,200.25 161.02,199.85 161.42,199.46 161.81,199.07 162.21,198.69 162.6,198.31 163,197.93 163.39,197.56 163.79,197.2 164.18,196.83 164.58,196.48 164.97,196.12 165.37,195.77 165.76,195.43 166.16,195.08 166.55,194.75 166.95,194.41 167.35,194.08 167.74,193.75 168.14,193.42 168.53,193.1 168.93,192.78 169.32,192.46 169.72,192.14 170.11,191.83 170.51,191.51 170.9,191.2 171.3,190.9 171.69,190.59 172.09,190.29 172.48,189.99 172.88,189.69 173.27,189.4 173.67,189.11 174.06,188.82 174.46,188.54 174.85,188.26 175.25,187.98 175.64,187.7 176.04,187.43 176.44,187.15 176.83,186.88 177.23,186.6 177.62,186.32 178.02,186.04 178.41,185.75 178.81,185.45 179.2,185.14 179.6,184.82 179.99,184.48 180.39,184.13 180.78,183.76 181.18,183.38 181.57,182.97 181.97,182.55 182.36,182.11 182.76,181.64 183.15,181.17 183.55,180.67 183.94,180.16 184.34,179.65 184.73,179.11 185.13,178.58 185.53,178.03 185.92,177.48 186.32,176.94 186.71,176.39 187.11,175.84 187.5,175.29 187.9,174.75 188.29,174.21 188.69,173.68 189.08,173.14 189.48,172.61 189.87,172.07 190.27,171.53 190.66,170.99 191.06,170.43 191.45,169.87 191.85,169.3 192.24,168.71 192.64,168.1 193.03,167.48 193.43,166.84 193.83,166.18 194.22,165.5 194.62,164.81 195.01,164.09 195.41,163.36 195.8,162.61 196.2,161.84 196.59,161.06 196.99,160.26 197.38,159.46 197.78,158.65 198.17,157.82 198.57,156.99 198.96,156.15 199.36,155.31 199.75,154.46 200.15,153.61 200.54,152.75 200.94,151.89 201.33,151.03 201.73,150.16 202.12,149.29 202.52,148.41 202.92,147.53 203.31,146.64 203.71,145.74 204.1,144.83 204.5,143.92 204.89,143 205.29,142.07 205.68,141.13 206.08,140.19 206.47,139.23 206.87,138.27 207.26,137.31 207.66,136.33 208.05,135.36 208.45,134.38 208.84,133.4 209.24,132.41 209.63,131.43 210.03,130.46 210.42,129.48 210.82,128.52 211.22,127.56 211.61,126.61 212.01,125.67 212.4,124.74 212.8,123.83 213.19,122.92 213.59,122.03 213.98,121.15 214.38,120.28 214.77,119.42 215.17,118.57 215.56,117.73 215.96,116.89 216.35,116.06 216.75,115.22 217.14,114.39 217.54,113.56 217.93,112.73 218.33,111.89 218.72,111.05 219.12,110.21 219.51,109.36 219.91,108.51 220.31,107.66 220.7,106.81 221.1,105.96 221.49,105.11 221.89,104.27 222.28,103.44 222.68,102.62 223.07,101.81 223.47,101.01 223.86,100.23 224.26,99.46 224.65,98.72 225.05,98 225.44,97.3 225.84,96.62 226.23,95.96 226.63,95.31 227.02,94.69 227.42,94.08 227.81,93.5 228.21,92.92 228.6,92.36 229,91.81 229.4,91.27 229.79,90.74 230.19,90.21 230.58,89.69 230.98,89.17 231.37,88.65 231.77,88.14 232.16,87.62 232.56,87.11 232.95,86.59 233.35,86.07 233.74,85.55 234.14,85.03 234.53,84.5 234.93,83.98 235.32,83.45 235.72,82.92 236.11,82.39 236.51,81.85 236.9,81.32 237.3,80.78 237.7,80.24 238.09,79.7 238.49,79.16 238.88,78.61 239.28,78.06 239.67,77.5 240.07,76.94 240.46,76.37 240.86,75.78 241.25,75.19 241.65,74.59 242.04,73.97 242.44,73.34 242.83,72.7 243.23,72.04 243.62,71.36 244.02,70.67 244.41,69.96 244.81,69.24 245.2,68.5 245.6,67.76 245.99,67.01 246.39,66.25 246.79,65.5 247.18,64.74 247.58,64 247.97,63.26 248.37,62.53 248.76,61.83 249.16,61.15 249.55,60.49 249.95,59.87 250.34,59.27 250.74,58.71 251.13,58.18 251.53,57.69 251.92,57.24 252.32,56.82 252.71,56.44 253.11,56.1 253.5,55.79 253.9,55.52 254.29,55.28 254.69,55.07 255.09,54.89 255.48,54.73 255.88,54.59 256.27,54.47 256.67,54.37 257.06,54.29 257.46,54.22 257.85,54.17 258.25,54.12 258.64,54.08 259.04,54.05 259.43,54.03 259.83,54.01 260.22,54 260.62,53.98 261.01,53.97 261.41,53.97" stroke-dasharray="none" stroke="rgb(31,120,180)" stroke-width="0.75" opacity="1" stroke-opacity="1" fill="none"/>
          </g>
          <g id="Fig:densplot_01.xyplot.lines.group.6.panel.1.1.1">
            <polyline id="Fig:densplot_01.xyplot.lines.group.6.panel.1.1.1.1" points="59.28,53.99 59.67,54 60.07,54.02 60.46,54.05 60.86,54.08 61.25,54.12 61.65,54.17 62.05,54.23 62.44,54.31 62.84,54.4 63.23,54.52 63.63,54.66 64.03,54.82 64.42,55.02 64.82,55.25 65.21,55.53 65.61,55.85 66,56.22 66.4,56.65 66.8,57.13 67.19,57.67 67.59,58.28 67.98,58.97 68.38,59.72 68.78,60.55 69.17,61.46 69.57,62.43 69.96,63.47 70.36,64.59 70.75,65.79 71.15,67.04 71.55,68.35 71.94,69.72 72.34,71.13 72.73,72.58 73.13,74.07 73.52,75.58 73.92,77.11 74.32,78.66 74.71,80.21 75.11,81.76 75.5,83.3 75.9,84.84 76.3,86.35 76.69,87.86 77.09,89.34 77.48,90.8 77.88,92.23 78.27,93.64 78.67,95.03 79.07,96.39 79.46,97.72 79.86,99.04 80.25,100.33 80.65,101.59 81.05,102.84 81.44,104.06 81.84,105.26 82.23,106.44 82.63,107.6 83.02,108.74 83.42,109.86 83.82,110.96 84.21,112.04 84.61,113.1 85,114.14 85.4,115.16 85.8,116.17 86.19,117.15 86.59,118.12 86.98,119.07 87.38,120 87.77,120.92 88.17,121.83 88.57,122.73 88.96,123.62 89.36,124.51 89.75,125.38 90.15,126.26 90.55,127.12 90.94,127.99 91.34,128.86 91.73,129.72 92.13,130.59 92.52,131.45 92.92,132.32 93.32,133.18 93.71,134.04 94.11,134.9 94.5,135.76 94.9,136.62 95.3,137.47 95.69,138.32 96.09,139.17 96.48,140.02 96.88,140.86 97.27,141.7 97.67,142.54 98.07,143.38 98.46,144.21 98.86,145.04 99.25,145.87 99.65,146.71 100.04,147.54 100.44,148.37 100.84,149.2 101.23,150.04 101.63,150.87 102.02,151.71 102.42,152.54 102.82,153.38 103.21,154.22 103.61,155.06 104,155.9 104.4,156.75 104.79,157.59 105.19,158.44 105.59,159.29 105.98,160.14 106.38,160.99 106.77,161.85 107.17,162.71 107.57,163.57 107.96,164.44 108.36,165.32 108.75,166.2 109.15,167.08 109.54,167.98 109.94,168.88 110.34,169.79 110.73,170.71 111.13,171.63 111.52,172.57 111.92,173.51 112.32,174.46 112.71,175.42 113.11,176.38 113.5,177.36 113.9,178.33 114.29,179.32 114.69,180.3 115.09,181.29 115.48,182.28 115.88,183.28 116.27,184.27 116.67,185.26 117.07,186.25 117.46,187.24 117.86,188.22 118.25,189.2 118.65,190.18 119.04,191.15 119.44,192.11 119.84,193.07 120.23,194.02 120.63,194.96 121.02,195.9 121.42,196.82 121.82,197.72 122.21,198.62 122.61,199.49 123,200.35 123.4,201.19 123.79,202 124.19,202.78 124.59,203.55 124.98,204.28 125.38,204.98 125.77,205.66 126.17,206.3 126.56,206.91 126.96,207.49 127.36,208.05 127.75,208.58 128.15,209.08 128.54,209.57 128.94,210.04 129.34,210.49 129.73,210.93 130.13,211.36 130.52,211.79 130.92,212.22 131.31,212.64 131.71,213.06 132.11,213.49 132.5,213.92 132.9,214.35 133.29,214.77 133.69,215.2 134.09,215.63 134.48,216.04 134.88,216.45 135.27,216.84 135.67,217.22 136.06,217.57 136.46,217.9 136.86,218.2 137.25,218.46 137.65,218.68 138.04,218.86 138.44,219 138.84,219.09 139.23,219.13 139.63,219.11 140.02,219.04 140.42,218.92 140.81,218.75 141.21,218.52 141.61,218.24 142,217.91 142.4,217.52 142.79,217.09 143.19,216.62 143.59,216.12 143.98,215.57 144.38,215 144.77,214.4 145.17,213.79 145.56,213.15 145.96,212.52 146.36,211.87 146.75,211.23 147.15,210.6 147.54,209.97 147.94,209.36 148.34,208.77 148.73,208.2 149.13,207.65 149.52,207.12 149.92,206.62 150.31,206.15 150.71,205.7 151.11,205.27 151.5,204.86 151.9,204.48 152.29,204.11 152.69,203.76 153.08,203.42 153.48,203.1 153.88,202.78 154.27,202.47 154.67,202.16 155.06,201.85 155.46,201.54 155.86,201.23 156.25,200.92 156.65,200.6 157.04,200.27 157.44,199.93 157.83,199.58 158.23,199.22 158.63,198.86 159.02,198.48 159.42,198.09 159.81,197.7 160.21,197.3 160.61,196.89 161,196.47 161.4,196.05 161.79,195.63 162.19,195.21 162.58,194.79 162.98,194.38 163.38,193.97 163.77,193.57 164.17,193.18 164.56,192.81 164.96,192.44 165.36,192.1 165.75,191.77 166.15,191.46 166.54,191.17 166.94,190.91 167.33,190.66 167.73,190.44 168.13,190.23 168.52,190.05 168.92,189.9 169.31,189.76 169.71,189.63 170.11,189.53 170.5,189.43 170.9,189.35 171.29,189.27 171.69,189.19 172.08,189.11 172.48,189.02 172.88,188.93 173.27,188.82 173.67,188.69 174.06,188.54 174.46,188.36 174.86,188.16 175.25,187.92 175.65,187.65 176.04,187.35 176.44,187.02 176.83,186.64 177.23,186.24 177.63,185.8 178.02,185.34 178.42,184.85 178.81,184.34 179.21,183.82 179.6,183.28 180,182.74 180.4,182.19 180.79,181.65 181.19,181.12 181.58,180.6 181.98,180.09 182.38,179.61 182.77,179.14 183.17,178.7 183.56,178.28 183.96,177.89 184.35,177.51 184.75,177.17 185.15,176.84 185.54,176.52 185.94,176.22 186.33,175.93 186.73,175.64 187.13,175.35 187.52,175.05 187.92,174.74 188.31,174.42 188.71,174.08 189.1,173.72 189.5,173.34 189.9,172.92 190.29,172.48 190.69,172.01 191.08,171.5 191.48,170.97 191.88,170.41 192.27,169.81 192.67,169.18 193.06,168.53 193.46,167.85 193.85,167.14 194.25,166.42 194.65,165.67 195.04,164.91 195.44,164.13 195.83,163.34 196.23,162.54 196.63,161.73 197.02,160.92 197.42,160.1 197.81,159.28 198.21,158.47 198.6,157.65 199,156.84 199.4,156.03 199.79,155.23 200.19,154.44 200.58,153.66 200.98,152.88 201.37,152.11 201.77,151.35 202.17,150.59 202.56,149.84 202.96,149.09 203.35,148.34 203.75,147.59 204.15,146.84 204.54,146.08 204.94,145.31 205.33,144.54 205.73,143.75 206.12,142.95 206.52,142.13 206.92,141.3 207.31,140.46 207.71,139.6 208.1,138.72 208.5,137.82 208.9,136.91 209.29,135.98 209.69,135.04 210.08,134.09 210.48,133.13 210.87,132.16 211.27,131.17 211.67,130.19 212.06,129.2 212.46,128.21 212.85,127.21 213.25,126.22 213.65,125.23 214.04,124.25 214.44,123.26 214.83,122.29 215.23,121.32 215.62,120.36 216.02,119.41 216.42,118.47 216.81,117.53 217.21,116.61 217.6,115.69 218,114.78 218.4,113.89 218.79,113 219.19,112.12 219.58,111.25 219.98,110.38 220.37,109.53 220.77,108.69 221.17,107.85 221.56,107.03 221.96,106.21 222.35,105.41 222.75,104.61 223.15,103.83 223.54,103.06 223.94,102.3 224.33,101.55 224.73,100.82 225.12,100.09 225.52,99.38 225.92,98.69 226.31,98 226.71,97.33 227.1,96.67 227.5,96.02 227.89,95.39 228.29,94.76 228.69,94.15 229.08,93.55 229.48,92.96 229.87,92.38 230.27,91.81 230.67,91.25 231.06,90.7 231.46,90.16 231.85,89.63 232.25,89.1 232.64,88.58 233.04,88.07 233.44,87.56 233.83,87.05 234.23,86.55 234.62,86.04 235.02,85.54 235.42,85.03 235.81,84.52 236.21,84 236.6,83.47 237,82.94 237.39,82.4 237.79,81.85 238.19,81.3 238.58,80.73 238.98,80.15 239.37,79.56 239.77,78.97 240.17,78.36 240.56,77.74 240.96,77.11 241.35,76.47 241.75,75.82 242.14,75.15 242.54,74.48 242.94,73.79 243.33,73.09 243.73,72.38 244.12,71.65 244.52,70.91 244.92,70.17 245.31,69.41 245.71,68.64 246.1,67.87 246.5,67.09 246.89,66.31 247.29,65.54 247.69,64.76 248.08,64 248.48,63.25 248.87,62.51 249.27,61.8 249.67,61.11 250.06,60.44 250.46,59.81 250.85,59.21 251.25,58.64 251.64,58.11 252.04,57.62 252.44,57.17 252.83,56.75 253.23,56.38 253.62,56.04 254.02,55.74 254.41,55.47 254.81,55.23 255.21,55.03 255.6,54.84 256,54.69 256.39,54.56 256.79,54.45 257.19,54.35 257.58,54.27 257.98,54.21 258.37,54.15 258.77,54.11 259.16,54.07 259.56,54.05 259.96,54.02 260.35,54.01 260.75,53.99 261.14,53.98 261.54,53.97" stroke-dasharray="none" stroke="rgb(31,120,180)" stroke-width="0.75" opacity="1" stroke-opacity="1" fill="none"/>
          </g>
          <g id="Fig:densplot_01.xyplot.lines.group.7.panel.1.1.1">
            <polyline id="Fig:densplot_01.xyplot.lines.group.7.panel.1.1.1.1" points="59.33,53.99 59.72,54 60.12,54.02 60.51,54.05 60.91,54.08 61.3,54.12 61.7,54.17 62.09,54.23 62.49,54.31 62.89,54.41 63.28,54.53 63.68,54.67 64.07,54.84 64.47,55.05 64.86,55.29 65.26,55.58 65.66,55.92 66.05,56.31 66.45,56.76 66.84,57.26 67.24,57.83 67.63,58.48 68.03,59.2 68.43,60 68.82,60.88 69.22,61.82 69.61,62.85 70.01,63.95 70.4,65.13 70.8,66.38 71.19,67.69 71.59,69.05 71.99,70.46 72.38,71.91 72.78,73.4 73.17,74.92 73.57,76.45 73.96,77.99 74.36,79.53 74.76,81.07 75.15,82.59 75.55,84.09 75.94,85.57 76.34,87.03 76.73,88.45 77.13,89.85 77.53,91.23 77.92,92.57 78.32,93.88 78.71,95.18 79.11,96.45 79.5,97.7 79.9,98.94 80.29,100.17 80.69,101.39 81.09,102.6 81.48,103.81 81.88,105.02 82.27,106.23 82.67,107.43 83.06,108.63 83.46,109.83 83.86,111.01 84.25,112.19 84.65,113.36 85.04,114.51 85.44,115.65 85.83,116.76 86.23,117.84 86.63,118.89 87.02,119.91 87.42,120.9 87.81,121.86 88.21,122.78 88.6,123.67 89,124.53 89.4,125.36 89.79,126.16 90.19,126.95 90.58,127.71 90.98,128.47 91.37,129.22 91.77,129.97 92.16,130.72 92.56,131.48 92.96,132.26 93.35,133.05 93.75,133.85 94.14,134.68 94.54,135.53 94.93,136.41 95.33,137.3 95.73,138.21 96.12,139.14 96.52,140.08 96.91,141.03 97.31,142 97.7,142.96 98.1,143.93 98.5,144.89 98.89,145.84 99.29,146.79 99.68,147.73 100.08,148.65 100.47,149.55 100.87,150.44 101.26,151.31 101.66,152.17 102.06,153.01 102.45,153.83 102.85,154.64 103.24,155.44 103.64,156.23 104.03,157.01 104.43,157.78 104.83,158.55 105.22,159.32 105.62,160.09 106.01,160.85 106.41,161.62 106.8,162.4 107.2,163.17 107.6,163.96 107.99,164.75 108.39,165.56 108.78,166.37 109.18,167.2 109.57,168.04 109.97,168.9 110.36,169.77 110.76,170.67 111.16,171.58 111.55,172.51 111.95,173.46 112.34,174.43 112.74,175.42 113.13,176.44 113.53,177.47 113.93,178.53 114.32,179.6 114.72,180.68 115.11,181.78 115.51,182.89 115.9,184.01 116.3,185.13 116.7,186.26 117.09,187.38 117.49,188.5 117.88,189.61 118.28,190.7 118.67,191.78 119.07,192.85 119.46,193.89 119.86,194.92 120.26,195.92 120.65,196.91 121.05,197.86 121.44,198.79 121.84,199.69 122.23,200.57 122.63,201.43 123.03,202.26 123.42,203.06 123.82,203.84 124.21,204.6 124.61,205.34 125,206.05 125.4,206.75 125.8,207.42 126.19,208.06 126.59,208.69 126.98,209.29 127.38,209.86 127.77,210.42 128.17,210.94 128.56,211.45 128.96,211.92 129.36,212.36 129.75,212.78 130.15,213.16 130.54,213.53 130.94,213.86 131.33,214.17 131.73,214.45 132.13,214.71 132.52,214.94 132.92,215.16 133.31,215.36 133.71,215.54 134.1,215.71 134.5,215.87 134.9,216.03 135.29,216.17 135.69,216.31 136.08,216.45 136.48,216.59 136.87,216.72 137.27,216.85 137.67,216.98 138.06,217.1 138.46,217.22 138.85,217.33 139.25,217.43 139.64,217.52 140.04,217.59 140.43,217.65 140.83,217.68 141.23,217.68 141.62,217.67 142.02,217.61 142.41,217.53 142.81,217.41 143.2,217.26 143.6,217.07 144,216.84 144.39,216.58 144.79,216.28 145.18,215.95 145.58,215.58 145.97,215.19 146.37,214.76 146.77,214.31 147.16,213.84 147.56,213.34 147.95,212.82 148.35,212.29 148.74,211.74 149.14,211.18 149.53,210.61 149.93,210.03 150.33,209.44 150.72,208.85 151.12,208.25 151.51,207.65 151.91,207.04 152.3,206.44 152.7,205.83 153.1,205.22 153.49,204.61 153.89,204.01 154.28,203.4 154.68,202.79 155.07,202.19 155.47,201.58 155.87,200.98 156.26,200.38 156.66,199.79 157.05,199.2 157.45,198.62 157.84,198.04 158.24,197.47 158.63,196.91 159.03,196.37 159.43,195.84 159.82,195.33 160.22,194.84 160.61,194.37 161.01,193.93 161.4,193.51 161.8,193.12 162.2,192.77 162.59,192.44 162.99,192.15 163.38,191.89 163.78,191.66 164.17,191.47 164.57,191.3 164.97,191.15 165.36,191.03 165.76,190.93 166.15,190.85 166.55,190.77 166.94,190.7 167.34,190.64 167.73,190.57 168.13,190.5 168.53,190.41 168.92,190.32 169.32,190.21 169.71,190.09 170.11,189.95 170.5,189.8 170.9,189.63 171.3,189.44 171.69,189.24 172.09,189.03 172.48,188.82 172.88,188.59 173.27,188.36 173.67,188.13 174.07,187.9 174.46,187.66 174.86,187.43 175.25,187.2 175.65,186.97 176.04,186.74 176.44,186.5 176.83,186.27 177.23,186.03 177.63,185.78 178.02,185.52 178.42,185.26 178.81,184.98 179.21,184.68 179.6,184.37 180,184.04 180.4,183.69 180.79,183.33 181.19,182.96 181.58,182.57 181.98,182.17 182.37,181.75 182.77,181.33 183.17,180.91 183.56,180.48 183.96,180.06 184.35,179.63 184.75,179.21 185.14,178.78 185.54,178.37 185.94,177.95 186.33,177.54 186.73,177.12 187.12,176.71 187.52,176.29 187.91,175.86 188.31,175.43 188.7,174.98 189.1,174.51 189.5,174.03 189.89,173.53 190.29,173 190.68,172.45 191.08,171.87 191.47,171.27 191.87,170.65 192.27,170 192.66,169.32 193.06,168.63 193.45,167.91 193.85,167.18 194.24,166.44 194.64,165.69 195.04,164.93 195.43,164.16 195.83,163.4 196.22,162.64 196.62,161.88 197.01,161.12 197.41,160.37 197.8,159.63 198.2,158.9 198.6,158.17 198.99,157.45 199.39,156.72 199.78,156 200.18,155.27 200.57,154.54 200.97,153.81 201.37,153.06 201.76,152.29 202.16,151.51 202.55,150.72 202.95,149.9 203.34,149.06 203.74,148.19 204.14,147.3 204.53,146.39 204.93,145.45 205.32,144.49 205.72,143.51 206.11,142.51 206.51,141.49 206.9,140.46 207.3,139.41 207.7,138.36 208.09,137.29 208.49,136.23 208.88,135.16 209.28,134.09 209.67,133.03 210.07,131.98 210.47,130.93 210.86,129.88 211.26,128.86 211.65,127.84 212.05,126.83 212.44,125.84 212.84,124.86 213.24,123.89 213.63,122.93 214.03,121.99 214.42,121.05 214.82,120.13 215.21,119.22 215.61,118.32 216,117.43 216.4,116.54 216.8,115.67 217.19,114.8 217.59,113.94 217.98,113.08 218.38,112.22 218.77,111.37 219.17,110.53 219.57,109.68 219.96,108.84 220.36,108 220.75,107.17 221.15,106.34 221.54,105.51 221.94,104.68 222.34,103.87 222.73,103.06 223.13,102.25 223.52,101.46 223.92,100.68 224.31,99.9 224.71,99.14 225.1,98.4 225.5,97.66 225.9,96.95 226.29,96.25 226.69,95.56 227.08,94.9 227.48,94.25 227.87,93.62 228.27,93 228.67,92.4 229.06,91.82 229.46,91.26 229.85,90.71 230.25,90.17 230.64,89.65 231.04,89.13 231.44,88.63 231.83,88.14 232.23,87.65 232.62,87.17 233.02,86.69 233.41,86.22 233.81,85.75 234.21,85.27 234.6,84.8 235,84.32 235.39,83.84 235.79,83.35 236.18,82.85 236.58,82.34 236.97,81.83 237.37,81.31 237.77,80.77 238.16,80.23 238.56,79.68 238.95,79.11 239.35,78.54 239.74,77.95 240.14,77.35 240.54,76.74 240.93,76.12 241.33,75.48 241.72,74.83 242.12,74.17 242.51,73.5 242.91,72.81 243.31,72.11 243.7,71.39 244.1,70.66 244.49,69.92 244.89,69.18 245.28,68.42 245.68,67.65 246.07,66.89 246.47,66.12 246.87,65.35 247.26,64.59 247.66,63.84 248.05,63.1 248.45,62.37 248.84,61.67 249.24,61 249.64,60.35 250.03,59.72 250.43,59.13 250.82,58.58 251.22,58.06 251.61,57.58 252.01,57.14 252.41,56.73 252.8,56.36 253.2,56.03 253.59,55.73 253.99,55.47 254.38,55.23 254.78,55.03 255.17,54.85 255.57,54.69 255.97,54.56 256.36,54.45 256.76,54.36 257.15,54.28 257.55,54.21 257.94,54.16 258.34,54.11 258.74,54.08 259.13,54.05 259.53,54.03 259.92,54.01 260.32,53.99 260.71,53.98 261.11,53.97 261.51,53.97" stroke-dasharray="none" stroke="rgb(31,120,180)" stroke-width="0.75" opacity="1" stroke-opacity="1" fill="none"/>
          </g>
          <g id="Fig:densplot_01.xyplot.lines.group.8.panel.1.1.1">
            <polyline id="Fig:densplot_01.xyplot.lines.group.8.panel.1.1.1.1" points="59.13,53.99 59.53,54 59.93,54.02 60.32,54.04 60.72,54.07 61.12,54.11 61.51,54.16 61.91,54.22 62.3,54.29 62.7,54.38 63.1,54.49 63.49,54.62 63.89,54.79 64.29,54.98 64.68,55.21 65.08,55.48 65.48,55.79 65.87,56.15 66.27,56.58 66.66,57.06 67.06,57.61 67.46,58.23 67.85,58.92 68.25,59.68 68.65,60.54 69.04,61.48 69.44,62.5 69.84,63.6 70.23,64.78 70.63,66.04 71.02,67.39 71.42,68.81 71.82,70.3 72.21,71.85 72.61,73.46 73.01,75.11 73.4,76.81 73.8,78.54 74.2,80.3 74.59,82.08 74.99,83.86 75.39,85.64 75.78,87.42 76.18,89.19 76.57,90.94 76.97,92.66 77.37,94.37 77.76,96.04 78.16,97.68 78.56,99.28 78.95,100.85 79.35,102.37 79.75,103.86 80.14,105.31 80.54,106.72 80.93,108.1 81.33,109.44 81.73,110.73 82.12,111.99 82.52,113.21 82.92,114.4 83.31,115.55 83.71,116.67 84.11,117.76 84.5,118.81 84.9,119.83 85.29,120.82 85.69,121.79 86.09,122.73 86.48,123.65 86.88,124.54 87.28,125.42 87.67,126.28 88.07,127.13 88.47,127.97 88.86,128.8 89.26,129.62 89.66,130.44 90.05,131.27 90.45,132.09 90.84,132.93 91.24,133.76 91.64,134.61 92.03,135.47 92.43,136.35 92.83,137.23 93.22,138.13 93.62,139.05 94.02,139.98 94.41,140.92 94.81,141.87 95.2,142.84 95.6,143.81 96,144.79 96.39,145.78 96.79,146.76 97.19,147.75 97.58,148.73 97.98,149.7 98.38,150.66 98.77,151.6 99.17,152.53 99.56,153.43 99.96,154.31 100.36,155.17 100.75,155.99 101.15,156.79 101.55,157.57 101.94,158.31 102.34,159.03 102.74,159.72 103.13,160.39 103.53,161.04 103.93,161.67 104.32,162.29 104.72,162.9 105.11,163.51 105.51,164.12 105.91,164.74 106.3,165.36 106.7,166 107.1,166.65 107.49,167.33 107.89,168.02 108.29,168.74 108.68,169.49 109.08,170.26 109.47,171.05 109.87,171.87 110.27,172.71 110.66,173.57 111.06,174.45 111.46,175.35 111.85,176.26 112.25,177.17 112.65,178.1 113.04,179.03 113.44,179.97 113.83,180.9 114.23,181.84 114.63,182.78 115.02,183.71 115.42,184.65 115.82,185.59 116.21,186.53 116.61,187.48 117.01,188.42 117.4,189.38 117.8,190.34 118.2,191.3 118.59,192.28 118.99,193.26 119.38,194.24 119.78,195.24 120.18,196.23 120.57,197.23 120.97,198.23 121.37,199.23 121.76,200.22 122.16,201.21 122.56,202.18 122.95,203.14 123.35,204.09 123.74,205.01 124.14,205.91 124.54,206.78 124.93,207.62 125.33,208.44 125.73,209.22 126.12,209.97 126.52,210.68 126.92,211.35 127.31,211.98 127.71,212.58 128.1,213.15 128.5,213.68 128.9,214.17 129.29,214.62 129.69,215.05 130.09,215.44 130.48,215.8 130.88,216.14 131.28,216.45 131.67,216.73 132.07,216.98 132.47,217.22 132.86,217.43 133.26,217.62 133.65,217.8 134.05,217.95 134.45,218.08 134.84,218.2 135.24,218.29 135.64,218.36 136.03,218.41 136.43,218.44 136.83,218.44 137.22,218.42 137.62,218.36 138.01,218.27 138.41,218.16 138.81,218 139.2,217.82 139.6,217.59 140,217.33 140.39,217.02 140.79,216.68 141.19,216.29 141.58,215.87 141.98,215.41 142.37,214.9 142.77,214.36 143.17,213.78 143.56,213.18 143.96,212.54 144.36,211.87 144.75,211.18 145.15,210.46 145.55,209.73 145.94,208.98 146.34,208.22 146.74,207.46 147.13,206.69 147.53,205.92 147.92,205.16 148.32,204.4 148.72,203.66 149.11,202.92 149.51,202.21 149.91,201.51 150.3,200.83 150.7,200.17 151.1,199.54 151.49,198.93 151.89,198.34 152.28,197.77 152.68,197.22 153.08,196.7 153.47,196.2 153.87,195.71 154.27,195.24 154.66,194.79 155.06,194.35 155.46,193.92 155.85,193.5 156.25,193.08 156.64,192.67 157.04,192.27 157.44,191.86 157.83,191.46 158.23,191.06 158.63,190.67 159.02,190.27 159.42,189.87 159.82,189.48 160.21,189.09 160.61,188.7 161.01,188.32 161.4,187.95 161.8,187.58 162.19,187.22 162.59,186.87 162.99,186.53 163.38,186.21 163.78,185.9 164.18,185.6 164.57,185.31 164.97,185.04 165.37,184.79 165.76,184.55 166.16,184.32 166.55,184.11 166.95,183.91 167.35,183.73 167.74,183.55 168.14,183.39 168.54,183.23 168.93,183.09 169.33,182.95 169.73,182.82 170.12,182.69 170.52,182.57 170.91,182.46 171.31,182.34 171.71,182.24 172.1,182.13 172.5,182.03 172.9,181.93 173.29,181.83 173.69,181.73 174.09,181.64 174.48,181.55 174.88,181.47 175.28,181.38 175.67,181.3 176.07,181.21 176.46,181.13 176.86,181.05 177.26,180.97 177.65,180.89 178.05,180.8 178.45,180.71 178.84,180.62 179.24,180.52 179.64,180.41 180.03,180.3 180.43,180.17 180.82,180.04 181.22,179.9 181.62,179.74 182.01,179.57 182.41,179.39 182.81,179.2 183.2,178.99 183.6,178.76 184,178.53 184.39,178.27 184.79,178 185.18,177.71 185.58,177.41 185.98,177.08 186.37,176.74 186.77,176.38 187.17,176 187.56,175.6 187.96,175.18 188.36,174.74 188.75,174.28 189.15,173.8 189.54,173.29 189.94,172.77 190.34,172.22 190.73,171.65 191.13,171.06 191.53,170.45 191.92,169.82 192.32,169.17 192.72,168.51 193.11,167.82 193.51,167.13 193.91,166.41 194.3,165.69 194.7,164.96 195.09,164.22 195.49,163.47 195.89,162.72 196.28,161.96 196.68,161.21 197.08,160.45 197.47,159.7 197.87,158.95 198.27,158.21 198.66,157.48 199.06,156.75 199.45,156.03 199.85,155.31 200.25,154.6 200.64,153.89 201.04,153.19 201.44,152.48 201.83,151.78 202.23,151.07 202.63,150.37 203.02,149.65 203.42,148.92 203.81,148.19 204.21,147.44 204.61,146.67 205,145.89 205.4,145.09 205.8,144.27 206.19,143.43 206.59,142.57 206.99,141.69 207.38,140.79 207.78,139.86 208.18,138.91 208.57,137.93 208.97,136.93 209.36,135.92 209.76,134.88 210.16,133.83 210.55,132.76 210.95,131.68 211.35,130.58 211.74,129.48 212.14,128.37 212.54,127.26 212.93,126.15 213.33,125.04 213.72,123.94 214.12,122.85 214.52,121.78 214.91,120.72 215.31,119.67 215.71,118.65 216.1,117.66 216.5,116.69 216.9,115.74 217.29,114.82 217.69,113.93 218.08,113.06 218.48,112.21 218.88,111.39 219.27,110.59 219.67,109.81 220.07,109.05 220.46,108.29 220.86,107.55 221.26,106.82 221.65,106.1 222.05,105.38 222.45,104.66 222.84,103.94 223.24,103.22 223.63,102.5 224.03,101.78 224.43,101.05 224.82,100.32 225.22,99.59 225.62,98.85 226.01,98.11 226.41,97.37 226.81,96.64 227.2,95.9 227.6,95.17 227.99,94.45 228.39,93.73 228.79,93.02 229.18,92.32 229.58,91.63 229.98,90.95 230.37,90.29 230.77,89.65 231.17,89.02 231.56,88.4 231.96,87.81 232.35,87.23 232.75,86.67 233.15,86.13 233.54,85.61 233.94,85.1 234.34,84.6 234.73,84.12 235.13,83.66 235.53,83.2 235.92,82.75 236.32,82.31 236.72,81.87 237.11,81.43 237.51,81 237.9,80.56 238.3,80.11 238.7,79.66 239.09,79.2 239.49,78.73 239.89,78.24 240.28,77.73 240.68,77.21 241.08,76.66 241.47,76.1 241.87,75.52 242.26,74.91 242.66,74.27 243.06,73.62 243.45,72.94 243.85,72.23 244.25,71.51 244.64,70.77 245.04,70.01 245.44,69.24 245.83,68.45 246.23,67.66 246.62,66.86 247.02,66.06 247.42,65.26 247.81,64.47 248.21,63.69 248.61,62.93 249,62.19 249.4,61.47 249.8,60.78 250.19,60.12 250.59,59.5 250.99,58.91 251.38,58.36 251.78,57.85 252.17,57.38 252.57,56.94 252.97,56.55 253.36,56.2 253.76,55.88 254.16,55.59 254.55,55.34 254.95,55.12 255.35,54.93 255.74,54.76 256.14,54.62 256.53,54.5 256.93,54.4 257.33,54.31 257.72,54.24 258.12,54.18 258.52,54.13 258.91,54.09 259.31,54.06 259.71,54.04 260.1,54.02 260.5,54 260.89,53.99 261.29,53.98 261.69,53.97" stroke-dasharray="none" stroke="rgb(31,120,180)" stroke-width="0.75" opacity="1" stroke-opacity="1" fill="none"/>
          </g>
        </g>
        <g id="Fig:densplot_01.panel.1.1.off.vp.2">
          <g id="Fig:densplot_01.border.panel.1.1.1">
            <rect id="Fig:densplot_01.border.panel.1.1.1.1" x="44.8" y="42.19" width="231.2" height="191.81" transform="" stroke="rgb(0,0,0)" stroke-dasharray="none" stroke-width="0.75" opacity="1" fill="none" stroke-opacity="1" fill-opacity="0"/>
          </g>
        </g>
        <g id="Fig:densplot_01..1"/>
      </g>
    </g>
  </g>
</svg>